<svg height="512" viewBox="0 0 64 64" width="512" xmlns="http://www.w3.org/2000/svg" xmlns:xlink="http://www.w3.org/1999/xlink"><linearGradient id="New_Gradient_Swatch" gradientUnits="userSpaceOnUse" x1="32" x2="32" y1="64.576" y2="-.278"><stop offset="0" stop-color="#e93e3a"/><stop offset=".35" stop-color="#ed683c"/><stop offset=".7" stop-color="#f3903f"/><stop offset="1" stop-color="#fdc70c"/></linearGradient><linearGradient id="New_Gradient_Swatch-2" x1="11" x2="11" xlink:href="#New_Gradient_Swatch" y1="64.576" y2="-.278"/><linearGradient id="New_Gradient_Swatch-3" x1="15" x2="15" xlink:href="#New_Gradient_Swatch" y1="64.576" y2="-.278"/><linearGradient id="New_Gradient_Swatch-5" x1="49" x2="49" xlink:href="#New_Gradient_Swatch" y1="64.576" y2="-.278"/><linearGradient id="New_Gradient_Swatch-6" x1="53" x2="53" xlink:href="#New_Gradient_Swatch" y1="64.576" y2="-.278"/><linearGradient id="New_Gradient_Swatch-7" x1="16" x2="16" xlink:href="#New_Gradient_Swatch" y1="64.576" y2="-.278"/><linearGradient id="New_Gradient_Swatch-8" x1="12" x2="12" xlink:href="#New_Gradient_Swatch" y1="64.576" y2="-.278"/><linearGradient id="New_Gradient_Swatch-9" x1="20" x2="20" xlink:href="#New_Gradient_Swatch" y1="64.576" y2="-.278"/><linearGradient id="New_Gradient_Swatch-10" x1="24" x2="24" xlink:href="#New_Gradient_Swatch" y1="64.576" y2="-.278"/><linearGradient id="New_Gradient_Swatch-11" x1="28" x2="28" xlink:href="#New_Gradient_Swatch" y1="64.576" y2="-.278"/><linearGradient id="New_Gradient_Swatch-13" x1="36" x2="36" xlink:href="#New_Gradient_Swatch" y1="64.576" y2="-.278"/><linearGradient id="New_Gradient_Swatch-14" x1="40" x2="40" xlink:href="#New_Gradient_Swatch" y1="64.576" y2="-.278"/><linearGradient id="New_Gradient_Swatch-15" x1="44" x2="44" xlink:href="#New_Gradient_Swatch" y1="64.576" y2="-.278"/><linearGradient id="New_Gradient_Swatch-16" x1="48" x2="48" xlink:href="#New_Gradient_Swatch" y1="64.576" y2="-.278"/><linearGradient id="New_Gradient_Swatch-17" x1="52" x2="52" xlink:href="#New_Gradient_Swatch" y1="64.576" y2="-.278"/><linearGradient id="New_Gradient_Swatch-18" x1="25.95" x2="25.95" xlink:href="#New_Gradient_Swatch" y1="64.576" y2="-.278"/><linearGradient id="New_Gradient_Swatch-19" x1="38.05" x2="38.05" xlink:href="#New_Gradient_Swatch" y1="64.576" y2="-.278"/><linearGradient id="New_Gradient_Swatch-20" x1="59" x2="59" xlink:href="#New_Gradient_Swatch" y1="64.576" y2="-.278"/><linearGradient id="New_Gradient_Swatch-21" x1="5" x2="5" xlink:href="#New_Gradient_Swatch" y1="64.576" y2="-.278"/><linearGradient id="New_Gradient_Swatch-26" x1="58" x2="58" xlink:href="#New_Gradient_Swatch" y1="64.576" y2="-.278"/><linearGradient id="New_Gradient_Swatch-27" x1="6" x2="6" xlink:href="#New_Gradient_Swatch" y1="64.576" y2="-.278"/><path d="m61.9 54.553-5.9-11.789v-31.764a3 3 0 0 0 -3-3h-5.08a7 7 0 0 0 -6.92-6h-18a7 7 0 0 0 -6.92 6h-5.08a3 3 0 0 0 -3 3v31.764l-5.895 11.789a1 1 0 0 0 -.105.447v5a2 2 0 0 0 2 2h56a2 2 0 0 0 2-2v-5a1 1 0 0 0 -.1-.447zm-32.9 1.447h6v1h-6zm-24.382-2 5-10h44.764l5 10zm18.382-28v6a2 2 0 0 0 2 2h14a2 2 0 0 0 2-2v-6a7.008 7.008 0 0 0 7-7v-5h2v24h-36v-24h2v5a7.008 7.008 0 0 0 7 7zm-5-17a5.006 5.006 0 0 1 5-5h18a5.006 5.006 0 0 1 5 5v10a5.006 5.006 0 0 1 -5 5h-1a1 1 0 0 0 -1 1v7h-2v-6h-2v6h-2v-6h-2v6h-2v-6h-2v6h-2v-7a1 1 0 0 0 -1-1h-1a5.006 5.006 0 0 1 -5-5zm-8 2a1 1 0 0 1 1-1h5v2h-3a1 1 0 0 0 -1 1v26a1 1 0 0 0 1 1h38a1 1 0 0 0 1-1v-26a1 1 0 0 0 -1-1h-3v-2h5a1 1 0 0 1 1 1v31h-44zm-6 49v-4h23v1a2 2 0 0 0 2 2h6a2 2 0 0 0 2-2v-1h23v4z" fill="url(#New_Gradient_Swatch)"/><path d="m10 50h2v2h-2z" fill="url(#New_Gradient_Swatch-2)"/><path d="m14 50h2v2h-2z" fill="url(#New_Gradient_Swatch-3)"/><path d="m18 50h28v2h-28z" fill="url(#New_Gradient_Swatch)"/><path d="m48 50h2v2h-2z" fill="url(#New_Gradient_Swatch-5)"/><path d="m52 50h2v2h-2z" fill="url(#New_Gradient_Swatch-6)"/><path d="m15 46h2v2h-2z" fill="url(#New_Gradient_Swatch-7)"/><path d="m11 46h2v2h-2z" fill="url(#New_Gradient_Swatch-8)"/><path d="m19 46h2v2h-2z" fill="url(#New_Gradient_Swatch-9)"/><path d="m23 46h2v2h-2z" fill="url(#New_Gradient_Swatch-10)"/><path d="m27 46h2v2h-2z" fill="url(#New_Gradient_Swatch-11)"/><path d="m31 46h2v2h-2z" fill="url(#New_Gradient_Swatch)"/><path d="m35 46h2v2h-2z" fill="url(#New_Gradient_Swatch-13)"/><path d="m39 46h2v2h-2z" fill="url(#New_Gradient_Swatch-14)"/><path d="m43 46h2v2h-2z" fill="url(#New_Gradient_Swatch-15)"/><path d="m47 46h2v2h-2z" fill="url(#New_Gradient_Swatch-16)"/><path d="m51 46h2v2h-2z" fill="url(#New_Gradient_Swatch-17)"/><path d="m26 21a4.978 4.978 0 0 0 4.875-3.876 1 1 0 0 0 -.268-.931l-4.8-4.8a1 1 0 0 0 -.931-.268 5 5 0 0 0 1.124 9.875zm-1.177-7.763 3.94 3.94a3 3 0 1 1 -3.94-3.94z" fill="url(#New_Gradient_Swatch-18)"/><path d="m38 21a5 5 0 0 0 1.125-9.875 1 1 0 0 0 -.932.268l-4.8 4.8a1 1 0 0 0 -.268.932 4.977 4.977 0 0 0 4.875 3.875zm1.178-7.763a3 3 0 1 1 -3.942 3.94z" fill="url(#New_Gradient_Swatch-19)"/><path d="m58 30h2v2h-2z" fill="url(#New_Gradient_Swatch-20)"/><g fill="url(#New_Gradient_Swatch-21)"><path d="m4 30h2v2h-2z"/><path d="m4 24h2v2h-2z"/><path d="m4 18h2v2h-2z"/></g><path d="m58 24h2v2h-2z" fill="url(#New_Gradient_Swatch-20)"/><path d="m58 18h2v2h-2z" fill="url(#New_Gradient_Swatch-20)"/><path d="m57 5h2v2h-2z" fill="url(#New_Gradient_Swatch-26)"/><path d="m5 5h2v2h-2z" fill="url(#New_Gradient_Swatch-27)"/></svg>